<?xml version="1.0" encoding="UTF-8" standalone="no"?>
<!DOCTYPE svg PUBLIC "-//W3C//DTD SVG 1.1//EN" "http://www.w3.org/Graphics/SVG/1.1/DTD/svg11.dtd">
<svg width="100%" height="100%" viewBox="0 0 500 500" version="1.1" xmlns="http://www.w3.org/2000/svg" xmlns:xlink="http://www.w3.org/1999/xlink" xml:space="preserve" xmlns:serif="http://www.serif.com/" style="fill-rule:evenodd;clip-rule:evenodd;stroke-linejoin:round;stroke-miterlimit:2;">
    <g transform="matrix(1,0,0,1,-1149.33,-578)">
        <g id="video" transform="matrix(0.534759,0,0,0.534759,-323.925,570.658)">
            <rect x="2754.99" y="13.729" width="935" height="935" style="fill:none;"/>
            <g transform="matrix(1.87,0,0,1.87,-4545.79,-16.3073)">
                <path d="M3938.76,131.124L3938.49,131.124L3938.49,110.782C3938.49,77.454 3965.55,50.395 3998.88,50.395L4309.44,50.395C4341.46,50.395 4367.7,75.376 4369.7,106.896L4370.01,106.896L4370.01,208.396L4369.83,208.396L4369.83,421.342C4369.83,454.67 4342.77,481.729 4309.44,481.729L3998.88,481.729C3965.55,481.729 3938.49,454.67 3938.49,421.342L3938.49,164.457L3938.76,164.457L3938.76,131.124ZM4224.99,245.095L4128.04,191.091C4120.6,186.95 4111.53,187.055 4104.2,191.366C4096.86,195.677 4092.36,203.549 4092.36,212.057L4092.36,320.066C4092.36,328.575 4096.86,336.447 4104.2,340.758C4111.53,345.069 4120.6,345.174 4128.04,341.033L4224.99,287.029C4232.6,282.792 4237.31,274.768 4237.31,266.062C4237.31,257.356 4232.6,249.332 4224.99,245.095Z" style="fill:rgb(59,130,246);"/>
            </g>
        </g>
    </g>
</svg>
