<?xml version="1.0" encoding="UTF-8" standalone="no"?>
<!DOCTYPE svg PUBLIC "-//W3C//DTD SVG 1.1//EN" "http://www.w3.org/Graphics/SVG/1.1/DTD/svg11.dtd">
<svg width="100%" height="100%" viewBox="0 0 500 500" version="1.1" xmlns="http://www.w3.org/2000/svg" xmlns:xlink="http://www.w3.org/1999/xlink" xml:space="preserve" xmlns:serif="http://www.serif.com/" style="fill-rule:evenodd;clip-rule:evenodd;stroke-linejoin:round;stroke-miterlimit:2;">
    <g transform="matrix(1,0,0,1,-4471.33,-13)">
        <g id="design" transform="matrix(0.534759,0,0,0.534759,2998.07,5.6585)">
            <rect x="2754.99" y="13.729" width="935" height="935" style="fill:none;"/>
            <g transform="matrix(1.09347,0,0,1.09347,-2190.72,8.99908)">
                <path d="M5001.36,235.049L5232.41,404.265C5224.8,457.665 5231.74,509.383 5237.5,538.947C5240.46,553.945 5232.65,568.993 5218.68,575.211L5008.19,668.931C4994.05,675.226 4977.44,670.771 4968.34,658.247C4952.29,636.406 4922.23,600.745 4874.47,562.842L4903.24,278.738C4904.68,264.462 4911,251.393 4920.76,241.499L5023.27,471.727C5013.69,484.691 5011.16,502.303 5018.18,518.067C5028.57,541.385 5055.93,551.888 5079.24,541.506C5102.56,531.124 5113.07,503.763 5102.68,480.445C5095.66,464.681 5080.89,454.774 5064.84,453.217L4962.4,223.138C4976.15,222.608 4989.91,226.661 5001.36,235.049ZM4871.91,236.245L4865.11,236.245L4865.11,181.571L4754.3,181.571C4742.21,211.127 4713.16,231.974 4679.28,231.974C4634.57,231.974 4598.28,195.678 4598.28,150.971C4598.28,106.264 4634.57,69.968 4679.28,69.968C4714.74,69.968 4744.91,92.807 4755.88,124.565L4865.11,124.565L4865.11,98.121C4865.11,75.453 4883.49,57.077 4906.15,57.077C4935.25,57.077 4974.14,57.077 5003.24,57.077C5025.9,57.077 5044.28,75.453 5044.28,98.121C5044.28,112.238 5044.28,124.565 5044.28,124.565L5138.56,124.565C5149.16,92.162 5179.65,68.726 5215.57,68.726C5260.28,68.726 5296.57,105.022 5296.57,149.728C5296.57,194.435 5260.28,230.731 5215.57,230.731C5182.17,230.731 5153.46,210.467 5141.08,181.571L5044.28,181.571L5044.28,213.486L5026.62,200.557C5007.26,186.374 4983.47,178.598 4960.76,180.416C4938.04,182.235 4907.01,195.798 4890.33,211.467C4882.92,218.436 4876.72,226.886 4871.91,236.245ZM5215.57,125.731C5202.33,125.731 5191.57,136.484 5191.57,149.728C5191.57,162.973 5202.33,173.726 5215.57,173.726C5228.82,173.726 5239.57,162.973 5239.57,149.728C5239.57,136.484 5228.82,125.731 5215.57,125.731ZM4679.28,126.974C4666.04,126.974 4655.28,137.727 4655.28,150.971C4655.28,164.216 4666.04,174.968 4679.28,174.968C4692.53,174.968 4703.28,164.216 4703.28,150.971C4703.28,137.727 4692.53,126.974 4679.28,126.974ZM5036.07,793.132L5014.13,743.841C5008.54,731.285 5014.19,716.553 5026.75,710.963L5236.31,617.66C5248.87,612.07 5263.6,617.725 5269.19,630.281L5291.13,679.572C5296.73,692.128 5291.07,706.86 5278.51,712.45L5068.95,805.753C5056.4,811.343 5041.66,805.688 5036.07,793.132Z" style="fill:rgb(59,130,246);"/>
            </g>
        </g>
    </g>
</svg>
