<?xml version="1.0" encoding="UTF-8" standalone="no"?>
<!DOCTYPE svg PUBLIC "-//W3C//DTD SVG 1.1//EN" "http://www.w3.org/Graphics/SVG/1.1/DTD/svg11.dtd">
<svg width="100%" height="100%" viewBox="0 0 500 500" version="1.1" xmlns="http://www.w3.org/2000/svg" xmlns:xlink="http://www.w3.org/1999/xlink" xml:space="preserve" xmlns:serif="http://www.serif.com/" style="fill-rule:evenodd;clip-rule:evenodd;stroke-linejoin:round;stroke-miterlimit:2;">
    <g transform="matrix(1,0,0,1,-4474,-591)">
        <g id="photo" transform="matrix(0.534759,0,0,0.534759,3000.74,583.658)">
            <rect x="2754.99" y="13.729" width="935" height="935" style="fill:none;"/>
            <g transform="matrix(1.84709,0,0,1.84709,-5509.4,-1050.77)">
                <path d="M4945.04,660.572L4945.04,998.252C4945.04,1025.2 4923.16,1047.08 4896.22,1047.08L4558.54,1047.08C4531.59,1047.08 4509.71,1025.2 4509.71,998.252L4509.71,660.572C4509.71,633.624 4531.59,611.745 4558.54,611.745L4896.22,611.745C4923.16,611.745 4945.04,633.624 4945.04,660.572ZM4911.71,873.924L4911.71,660.572C4911.71,652.021 4904.77,645.079 4896.22,645.079L4558.54,645.079C4549.99,645.079 4543.04,652.021 4543.04,660.572L4543.04,922.412L4625.74,839.716C4635.11,830.343 4650.31,830.343 4659.68,839.716L4691.71,871.745L4784.37,773.489C4788.94,768.644 4795.32,765.915 4801.98,765.956C4808.64,765.996 4814.98,768.803 4819.49,773.704L4911.71,873.924ZM4640.04,682.412C4671.69,682.412 4697.38,708.102 4697.38,739.745C4697.38,771.388 4671.69,797.079 4640.04,797.079C4608.4,797.079 4582.71,771.388 4582.71,739.745C4582.71,708.102 4608.4,682.412 4640.04,682.412Z"/>
            </g>
        </g>
    </g>
</svg>
