<?xml version="1.0" encoding="UTF-8" standalone="no"?>
<!DOCTYPE svg PUBLIC "-//W3C//DTD SVG 1.1//EN" "http://www.w3.org/Graphics/SVG/1.1/DTD/svg11.dtd">
<svg width="100%" height="100%" viewBox="0 0 500 500" version="1.1" xmlns="http://www.w3.org/2000/svg" xmlns:xlink="http://www.w3.org/1999/xlink" xml:space="preserve" xmlns:serif="http://www.serif.com/" style="fill-rule:evenodd;clip-rule:evenodd;stroke-linejoin:round;stroke-miterlimit:2;">
    <g transform="matrix(1,0,0,1,-5040.67,-13)">
        <g id="social" transform="matrix(0.534759,0,0,0.534759,3567.41,5.6585)">
            <rect x="2754.99" y="13.729" width="935" height="935" style="fill:none;"/>
            <g transform="matrix(1.04423,0,0,1.04423,222.478,-24.4325)">
                <path d="M2865.62,722.676C2853.73,742.649 2831.92,756.042 2807.01,756.042L2694.41,756.042L2606.17,834.85C2598.12,842.041 2586.69,844.059 2576.66,840.062C2566.64,836.064 2559.73,826.738 2558.84,815.979L2553.84,756.042C2516.22,756.042 2485.68,725.499 2485.68,687.88L2485.68,527.83C2485.68,490.211 2516.22,459.669 2553.84,459.669L2807.01,459.669C2830.52,459.669 2851.27,471.596 2863.52,489.725C2870.88,500.606 2875.17,513.72 2875.17,527.83L2875.17,687.88C2875.17,700.588 2871.69,712.488 2865.62,722.676ZM2680.92,575.628C2662.59,575.628 2647.7,590.511 2647.7,608.844C2647.7,627.176 2662.59,642.06 2680.92,642.06C2699.25,642.06 2714.14,627.176 2714.14,608.844C2714.14,590.511 2699.25,575.628 2680.92,575.628ZM2775.4,575.628C2757.07,575.628 2742.18,590.511 2742.18,608.844C2742.18,627.176 2757.07,642.06 2775.4,642.06C2793.73,642.06 2808.62,627.176 2808.62,608.844C2808.62,590.511 2793.73,575.628 2775.4,575.628ZM2586.44,575.628C2568.11,575.628 2553.22,590.511 2553.22,608.844C2553.22,627.176 2568.11,642.06 2586.44,642.06C2604.77,642.06 2619.66,627.176 2619.66,608.844C2619.66,590.511 2604.77,575.628 2586.44,575.628ZM2728.43,399.976L2832.86,295.551L2956.14,418.828C2967.79,430.476 2986.7,430.476 2998.35,418.828C3009.99,407.18 3009.99,388.267 2998.35,376.619L2986.77,365.042L3022.46,329.352L3117.09,423.977C3117.54,424.434 3118.01,424.874 3118.49,425.296L3118.49,446.746C3118.49,458.145 3113.96,469.077 3105.9,477.137C3097.84,485.197 3086.91,489.725 3075.51,489.725L2929.08,489.725C2912.85,437.746 2864.31,399.976 2807.01,399.976L2728.43,399.976ZM2934.87,564.329C2935.46,564.314 2936.05,564.307 2936.64,564.307L3189.18,564.307C3228.37,564.307 3260.19,597.234 3260.19,637.791L3260.19,797.008C3260.19,837.565 3228.37,870.492 3189.18,870.492L2936.64,870.492C2898.89,870.492 2867.97,839.944 2865.75,801.453C2906.8,780.164 2934.87,737.274 2934.87,687.88L2934.87,564.329ZM3131.42,697.329L3023.14,641.306C3016.41,637.828 3008.43,638.2 3002.03,642.288C2995.64,646.377 2991.75,653.6 2991.75,661.377L2991.75,773.422C2991.75,781.199 2995.64,788.422 3002.03,792.511C3008.43,796.6 3016.41,796.971 3023.14,793.493L3131.42,737.471C3138.76,733.669 3143.4,725.899 3143.4,717.4C3143.4,708.9 3138.76,701.13 3131.42,697.329ZM2726.31,317.684L2726.31,140.969C2726.31,129.571 2730.84,118.639 2738.9,110.579C2746.96,102.519 2757.89,97.99 2769.29,97.99L3075.51,97.99C3086.91,97.99 3097.84,102.519 3105.9,110.579C3113.96,118.639 3118.49,129.571 3118.49,140.969L3118.49,340.964L3043.57,266.038C3031.91,254.382 3013.01,254.382 3001.36,266.038L2944.56,322.832L2853.97,232.237C2842.31,220.581 2823.41,220.581 2811.76,232.237L2726.31,317.684ZM2981.5,142.312C2961.85,142.312 2945.9,158.261 2945.9,177.904C2945.9,197.548 2961.85,213.496 2981.5,213.496C3001.14,213.496 3017.09,197.548 3017.09,177.904C3017.09,158.261 3001.14,142.312 2981.5,142.312Z" style="fill:rgb(59,130,246);"/>
            </g>
        </g>
    </g>
</svg>
