<?xml version="1.0" encoding="UTF-8" standalone="no"?>
<!DOCTYPE svg PUBLIC "-//W3C//DTD SVG 1.1//EN" "http://www.w3.org/Graphics/SVG/1.1/DTD/svg11.dtd">
<svg width="100%" height="100%" viewBox="0 0 500 500" version="1.1" xmlns="http://www.w3.org/2000/svg" xmlns:xlink="http://www.w3.org/1999/xlink" xml:space="preserve" xmlns:serif="http://www.serif.com/" style="fill-rule:evenodd;clip-rule:evenodd;stroke-linejoin:round;stroke-miterlimit:2;">
    <g transform="matrix(1,0,0,1,-3903.33,-13)">
        <g id="strategy" transform="matrix(0.534759,0,0,0.534759,2430.07,5.6585)">
            <rect x="2754.99" y="13.729" width="935" height="935" style="fill:none;"/>
            <g transform="matrix(1.78246,0,0,1.78246,-4173.56,-22.7069)">
                <path d="M4066.51,369.543C4066.51,361.299 4062.47,353.578 4055.71,348.871C4012.7,319.124 3984.51,269.453 3984.51,213.251C3984.51,122.277 4058.37,48.417 4149.34,48.417C4240.32,48.417 4314.18,122.277 4314.18,213.251C4314.18,270.829 4284.59,321.552 4239.81,351.032C4232.76,355.692 4228.53,363.574 4228.53,372.019C4228.51,382.439 4228.51,396.876 4228.51,409.239C4228.51,415.917 4225.86,422.321 4221.14,427.043C4216.41,431.765 4210.01,434.417 4203.33,434.417L4091.69,434.417C4085.01,434.417 4078.61,431.765 4073.89,427.043C4069.16,422.321 4066.51,415.917 4066.51,409.239L4066.51,369.543ZM4059.43,207.829C4059.43,158.203 4099.72,117.912 4149.34,117.912C4158.99,117.912 4166.83,110.077 4166.83,100.427C4166.83,90.776 4158.99,82.942 4149.34,82.942C4080.42,82.942 4024.46,138.902 4024.46,207.829C4024.46,217.48 4032.29,225.314 4041.94,225.314C4051.59,225.314 4059.43,217.48 4059.43,207.829ZM4202.34,469.02L4202.34,491.841C4202.34,498.519 4199.69,504.923 4194.97,509.645C4190.25,514.367 4183.84,517.02 4177.16,517.02L4121.52,517.02C4114.85,517.02 4108.44,514.367 4103.72,509.645C4099,504.923 4096.34,498.519 4096.34,491.841L4096.34,469.02L4202.34,469.02Z" style="fill:rgb(59,130,246);"/>
            </g>
        </g>
    </g>
</svg>
