<?xml version="1.0" encoding="UTF-8" standalone="no"?>
<!DOCTYPE svg PUBLIC "-//W3C//DTD SVG 1.1//EN" "http://www.w3.org/Graphics/SVG/1.1/DTD/svg11.dtd">
<svg width="100%" height="100%" viewBox="0 0 500 500" version="1.1" xmlns="http://www.w3.org/2000/svg" xmlns:xlink="http://www.w3.org/1999/xlink" xml:space="preserve" xmlns:serif="http://www.serif.com/" style="fill-rule:evenodd;clip-rule:evenodd;stroke-linejoin:round;stroke-miterlimit:2;">
    <g transform="matrix(1,0,0,1,-3332.67,-13)">
        <g id="marketing" transform="matrix(0.534759,0,0,0.534759,1859.41,5.6585)">
            <rect x="2754.99" y="13.729" width="935" height="935" style="fill:none;"/>
            <g transform="matrix(2.86606,0,0,2.86606,-5492.69,-313.324)">
                <path d="M2937.9,228.735L2895.06,185.898L2946.34,184.528L2946.98,133.978L2989.82,176.816L2995.03,215.874L3029.58,250.428C3033.04,248.972 3036.84,248.167 3040.83,248.167C3056.87,248.167 3069.89,261.189 3069.89,277.229C3069.89,293.268 3056.87,306.29 3040.83,306.29C3024.79,306.29 3011.76,293.268 3011.76,277.229C3011.76,273.148 3012.61,269.262 3014.13,265.737L2980.78,232.391L2937.9,228.735ZM2989.57,145.808C3005.46,139.597 3022.75,136.188 3040.83,136.188C3118.67,136.188 3181.87,199.386 3181.87,277.229C3181.87,355.071 3118.67,418.27 3040.83,418.27C2962.99,418.27 2899.79,355.071 2899.79,277.229C2899.79,260.528 2902.7,244.502 2908.03,229.63L2922.52,244.114C2923.44,245.039 2924.44,245.874 2925.51,246.611C2922.92,256.383 2921.53,266.646 2921.53,277.229C2921.53,343.068 2974.99,396.521 3040.83,396.521C3106.67,396.521 3160.12,343.068 3160.12,277.229C3160.12,211.389 3106.67,157.936 3040.83,157.936C3028.92,157.936 3017.42,159.685 3006.56,162.939C3006.13,162.419 3005.68,161.918 3005.19,161.437L2989.57,145.808ZM3014.62,198.259C3022.86,195.522 3031.67,194.039 3040.83,194.039C3086.74,194.039 3124.02,231.315 3124.02,277.229C3124.02,323.142 3086.74,360.418 3040.83,360.418C2994.91,360.418 2957.64,323.142 2957.64,277.229C2957.64,268.642 2958.94,260.358 2961.36,252.563L2971.02,253.386L2980.97,263.332C2979.93,267.798 2979.39,272.45 2979.39,277.229C2979.39,311.138 3006.92,338.669 3040.83,338.669C3074.74,338.669 3102.27,311.138 3102.27,277.229C3102.27,243.319 3074.74,215.788 3040.83,215.788C3036.15,215.788 3031.59,216.312 3027.21,217.305L3015.61,205.702L3014.62,198.259Z"/>
            </g>
        </g>
    </g>
</svg>
