<?xml version="1.0" encoding="UTF-8" standalone="no"?>
<!DOCTYPE svg PUBLIC "-//W3C//DTD SVG 1.1//EN" "http://www.w3.org/Graphics/SVG/1.1/DTD/svg11.dtd">
<svg width="100%" height="100%" viewBox="0 0 500 500" version="1.1" xmlns="http://www.w3.org/2000/svg" xmlns:xlink="http://www.w3.org/1999/xlink" xml:space="preserve" xmlns:serif="http://www.serif.com/" style="fill-rule:evenodd;clip-rule:evenodd;stroke-linejoin:round;stroke-miterlimit:2;">
    <g transform="matrix(1,0,0,1,-5610.67,-13)">
        <g id="ai" transform="matrix(0.534759,0,0,0.534759,4137.41,5.6585)">
            <rect x="2754.99" y="13.729" width="935" height="935" style="fill:none;"/>
            <g transform="matrix(1.77991,0,0,1.77991,-1605.3,-614.262)">
                <path d="M2875.17,570.384L2875.17,687.88C2875.17,700.588 2871.69,712.488 2865.62,722.676C2853.73,742.649 2831.92,756.042 2807.01,756.042L2694.41,756.042L2606.17,834.85C2598.12,842.041 2586.69,844.059 2576.66,840.062C2566.64,836.064 2559.73,826.738 2558.84,815.979L2553.84,756.042C2516.22,756.042 2485.68,725.499 2485.68,687.88L2485.68,527.83C2485.68,490.211 2516.22,459.669 2553.84,459.669L2755.55,459.669L2768.77,414.12C2773.12,399.157 2786.82,388.863 2802.4,388.863C2817.98,388.863 2831.69,399.157 2836.03,414.12L2853.53,474.402L2913.82,491.902C2928.78,496.246 2939.07,509.953 2939.07,525.534C2939.07,541.115 2928.78,554.822 2913.82,559.166L2875.17,570.384ZM2904.05,525.534L2828.43,503.581C2827.46,503.3 2826.58,502.779 2825.87,502.067C2825.16,501.354 2824.64,500.473 2824.36,499.505L2802.4,423.883L2780.45,499.505C2780.17,500.473 2779.65,501.354 2778.93,502.067C2778.22,502.779 2777.34,503.3 2776.37,503.581L2700.75,525.534L2776.37,547.487C2777.34,547.768 2778.22,548.289 2778.93,549.002C2779.65,549.714 2780.17,550.595 2780.45,551.563L2802.4,627.185L2824.36,551.563C2824.64,550.595 2825.16,549.714 2825.87,549.002C2826.58,548.289 2827.46,547.768 2828.43,547.487L2904.05,525.534ZM2591.46,520.713L2578.69,555.227L2544.17,567.998L2578.69,580.77L2591.46,615.284L2604.23,580.77L2638.74,567.998L2604.23,555.227L2591.46,520.713ZM2692.86,570.573L2674.03,621.481L2623.12,640.319L2674.03,659.157L2692.86,710.065L2711.7,659.157L2762.61,640.319L2711.7,621.481L2692.86,570.573Z"/>
            </g>
        </g>
    </g>
</svg>
