<?xml version="1.0" encoding="UTF-8" standalone="no"?>
<!DOCTYPE svg PUBLIC "-//W3C//DTD SVG 1.1//EN" "http://www.w3.org/Graphics/SVG/1.1/DTD/svg11.dtd">
<svg width="100%" height="100%" viewBox="0 0 500 500" version="1.1" xmlns="http://www.w3.org/2000/svg" xmlns:xlink="http://www.w3.org/1999/xlink" xml:space="preserve" xmlns:serif="http://www.serif.com/" style="fill-rule:evenodd;clip-rule:evenodd;stroke-linejoin:round;stroke-miterlimit:2;">
    <g transform="matrix(1,0,0,1,-3332.67,-591)">
        <g id="ux" transform="matrix(0.534759,0,0,0.534759,1859.41,583.658)">
            <rect x="2754.99" y="13.729" width="935" height="935" style="fill:none;"/>
            <g transform="matrix(1.87,0,0,1.87,-3478.34,-1089.39)">
                <path d="M3788.83,683.724L3788.83,996.084C3788.83,1023.31 3766.73,1045.4 3739.51,1045.4L3427.15,1045.4C3399.93,1045.4 3377.83,1023.31 3377.83,996.084L3377.83,683.724C3377.83,656.504 3399.93,634.404 3427.15,634.404L3739.51,634.404C3766.73,634.404 3788.83,656.504 3788.83,683.724ZM3730.34,708.47C3730.34,699.266 3722.88,691.804 3713.67,691.804L3454.66,691.804C3445.46,691.804 3438,699.266 3438,708.47L3438,784.581C3438,793.786 3445.46,801.247 3454.66,801.247L3713.67,801.247C3722.88,801.247 3730.34,793.786 3730.34,784.581L3730.34,708.47ZM3697,725.137L3697,767.914L3471.33,767.914L3471.33,725.137L3697,725.137ZM3440.22,924.732C3440.22,935.594 3441.43,944.932 3443.81,952.751C3446.32,960.984 3450.28,967.716 3455.64,972.986C3460.98,978.247 3467.87,982.169 3476.34,984.679C3484.39,987.065 3493.98,988.284 3505.14,988.284C3514.61,988.284 3522.88,987.134 3529.96,984.887C3537.28,982.561 3543.7,978.862 3549.23,973.799L3549.24,973.782C3555.73,967.775 3560.12,960.792 3562.45,952.852C3564.66,945.339 3565.8,935.968 3565.8,924.732L3565.8,858.735C3565.8,851.652 3563.92,846.456 3560.66,842.993C3557.2,839.312 3552.69,837.402 3547.1,837.402C3541.46,837.402 3536.99,839.342 3533.62,843.054C3530.49,846.503 3528.68,851.681 3528.68,858.735L3528.68,926.791C3528.68,937.268 3526.88,945.141 3522.83,950.296C3519.01,955.15 3512.37,957.226 3503.15,957.226C3496.28,957.226 3490.91,956.147 3487.09,953.691C3483.55,951.409 3481.1,948.187 3479.7,944.049C3478.1,939.281 3477.34,933.338 3477.34,926.23L3477.34,858.735C3477.34,851.754 3475.52,846.589 3472.35,843.098C3468.96,839.366 3464.41,837.402 3458.64,837.402C3453.08,837.402 3448.62,839.344 3445.21,843.098C3442.03,846.589 3440.22,851.754 3440.22,858.735L3440.22,924.732ZM3615.36,952.249L3615.36,952.255C3610.09,959.896 3607.67,966.441 3607.67,971.725C3607.67,977.125 3609.4,981.167 3612.47,983.995C3615.53,986.811 3619.36,988.284 3624.01,988.284C3626.89,988.284 3629.4,987.797 3631.54,986.9C3633.73,985.981 3635.63,984.721 3637.23,983.133C3638.64,981.733 3639.85,980.294 3640.85,978.82C3641.71,977.557 3643.16,975.35 3645.2,972.197L3667.24,938.896L3687.86,971.04L3687.89,971.088C3691.01,975.818 3693.14,979.003 3694.29,980.643C3695.78,982.774 3697.72,984.567 3700.12,986.001C3702.59,987.477 3705.59,988.284 3709.16,988.284C3712.43,988.284 3715.36,987.551 3717.96,986.14C3720.66,984.673 3722.74,982.675 3724.22,980.171C3725.7,977.675 3726.45,974.924 3726.45,971.912C3726.45,969.02 3725.74,965.942 3724.24,962.698C3722.97,959.951 3720.95,956.486 3718.14,952.319L3690.39,909.978L3716.05,871.993C3721.58,863.811 3724.09,857.231 3724.09,852.463C3724.09,848.342 3722.52,844.762 3719.31,841.76C3716.26,838.911 3712.37,837.402 3707.56,837.402C3704.9,837.402 3702.57,837.884 3700.56,838.775C3698.53,839.675 3696.68,841.009 3695.03,842.809C3693.69,844.277 3692.29,846.123 3690.85,848.36C3689.56,850.349 3688.01,852.742 3686.19,855.537L3667.89,882.986L3650.83,855.629C3646.76,849.091 3643.54,844.635 3641.24,842.222C3638.27,839.108 3634.17,837.402 3628.83,837.402C3624.24,837.402 3620.36,838.854 3617.17,841.678C3613.71,844.738 3612.11,848.251 3612.11,852.088C3612.11,855.22 3612.83,858.493 3614.34,861.892C3615.64,864.831 3617.58,868.353 3620.18,872.449L3620.21,872.5L3644.66,909.872L3615.36,952.249Z"/>
            </g>
        </g>
    </g>
</svg>
