<?xml version="1.0" encoding="UTF-8" standalone="no"?>
<!DOCTYPE svg PUBLIC "-//W3C//DTD SVG 1.1//EN" "http://www.w3.org/Graphics/SVG/1.1/DTD/svg11.dtd">
<svg width="100%" height="100%" viewBox="0 0 500 500" version="1.1" xmlns="http://www.w3.org/2000/svg" xmlns:xlink="http://www.w3.org/1999/xlink" xml:space="preserve" xmlns:serif="http://www.serif.com/" style="fill-rule:evenodd;clip-rule:evenodd;stroke-linejoin:round;stroke-miterlimit:2;">
    <g transform="matrix(1,0,0,1,-2754,-13)">
        <g id="brand" transform="matrix(0.534759,0,0,0.534759,1280.74,5.6585)">
            <rect x="2754.99" y="13.729" width="935" height="935" style="fill:none;"/>
            <g transform="matrix(2.0004,0,0,2.0004,-2810.7,-65.0047)">
                <path d="M2998.01,68.136C3002.62,63.076 3009.15,60.192 3015.99,60.192C3022.84,60.192 3029.37,63.076 3033.98,68.136L3052.01,87.922C3058.41,94.949 3068.32,97.604 3077.38,94.72L3102.88,86.598C3109.4,84.521 3116.5,85.288 3122.43,88.711C3128.36,92.134 3132.57,97.896 3134.03,104.584L3139.75,130.733C3141.78,140.019 3149.04,147.273 3158.32,149.304L3184.47,155.023C3191.16,156.485 3196.92,160.698 3200.35,166.627C3203.77,172.556 3204.53,179.652 3202.46,186.176L3194.34,211.68C3191.45,220.738 3194.11,230.647 3201.13,237.049L3220.92,255.076C3225.98,259.687 3228.86,266.216 3228.86,273.062C3228.86,279.908 3225.98,286.437 3220.92,291.048L3201.13,309.075C3194.11,315.477 3191.45,325.386 3194.34,334.444L3202.46,359.948C3204.53,366.472 3203.77,373.568 3200.35,379.497C3196.92,385.426 3191.16,389.638 3184.47,391.101L3158.32,396.82C3149.04,398.851 3141.78,406.104 3139.75,415.391L3134.03,441.54C3132.57,448.228 3128.36,453.99 3122.43,457.413C3116.5,460.836 3109.4,461.603 3102.88,459.526L3077.38,451.404C3068.32,448.52 3058.41,451.175 3052.01,458.202L3033.98,477.987C3029.37,483.048 3022.84,485.932 3015.99,485.932C3009.15,485.932 3002.62,483.048 2998.01,477.987L2979.98,458.202C2973.58,451.175 2963.67,448.52 2954.61,451.404L2929.11,459.526C2922.58,461.603 2915.49,460.836 2909.56,457.413C2903.63,453.99 2899.42,448.228 2897.95,441.54L2892.24,415.391C2890.2,406.104 2882.95,398.851 2873.66,396.82L2847.52,391.101C2840.83,389.638 2835.07,385.426 2831.64,379.497C2828.22,373.568 2827.45,366.472 2829.53,359.948L2837.65,334.444C2840.54,325.386 2837.88,315.477 2830.85,309.075L2811.07,291.048C2806.01,286.437 2803.12,279.908 2803.12,273.062C2803.12,266.216 2806.01,259.687 2811.07,255.076L2830.85,237.049C2837.88,230.647 2840.54,220.738 2837.65,211.68L2829.53,186.176C2827.45,179.652 2828.22,172.556 2831.64,166.627C2835.07,160.698 2840.83,156.485 2847.52,155.023L2873.66,149.304C2882.95,147.273 2890.2,140.019 2892.24,130.733L2897.95,104.584C2899.42,97.896 2903.63,92.134 2909.56,88.711C2915.49,85.288 2922.58,84.521 2929.11,86.598L2954.61,94.72C2963.67,97.604 2973.58,94.949 2979.98,87.922L2998.01,68.136ZM3015.99,132.684C2938.69,132.684 2875.93,195.446 2875.93,272.75C2875.93,350.055 2938.69,412.816 3015.99,412.816C3093.3,412.816 3156.06,350.055 3156.06,272.75C3156.06,195.446 3093.3,132.684 3015.99,132.684ZM3015.99,163.845C3076.1,163.845 3124.9,212.644 3124.9,272.75C3124.9,332.857 3076.1,381.656 3015.99,381.656C2955.89,381.656 2907.09,332.857 2907.09,272.75C2907.09,212.644 2955.89,163.845 3015.99,163.845ZM3001.12,212.61L2990.64,239.45L2961.87,241.124C2955.3,241.507 2949.64,245.877 2947.61,252.133C2945.58,258.389 2947.59,265.252 2952.68,269.421L2974.96,287.684L2967.67,315.558C2966,321.922 2968.41,328.656 2973.73,332.523C2979.05,336.389 2986.2,336.597 2991.74,333.046L3015.99,317.494L3040.25,333.046C3045.79,336.597 3052.93,336.389 3058.26,332.523C3063.58,328.656 3065.99,321.922 3064.32,315.558L3057.02,287.684L3079.31,269.421C3084.4,265.252 3086.41,258.389 3084.38,252.133C3082.35,245.877 3076.68,241.507 3070.12,241.124L3041.35,239.45L3030.87,212.61C3028.48,206.483 3022.57,202.449 3015.99,202.449C3009.42,202.449 3003.51,206.483 3001.12,212.61Z" style="fill:rgb(59,130,246);"/>
            </g>
        </g>
    </g>
</svg>
