<?xml version="1.0" encoding="UTF-8" standalone="no"?>
<!DOCTYPE svg PUBLIC "-//W3C//DTD SVG 1.1//EN" "http://www.w3.org/Graphics/SVG/1.1/DTD/svg11.dtd">
<svg width="100%" height="100%" viewBox="0 0 500 500" version="1.1" xmlns="http://www.w3.org/2000/svg" xmlns:xlink="http://www.w3.org/1999/xlink" xml:space="preserve" xmlns:serif="http://www.serif.com/" style="fill-rule:evenodd;clip-rule:evenodd;stroke-linejoin:round;stroke-miterlimit:2;">
    <g transform="matrix(1,0,0,1,-5614,-591)">
        <g id="art" transform="matrix(0.534759,0,0,0.534759,4140.74,583.658)">
            <rect x="2754.99" y="13.729" width="935" height="935" style="fill:none;"/>
            <g transform="matrix(0.951294,0,0,0.951294,122.955,-9.08007)">
                <path d="M3491.33,872.067C3434.95,916.481 3342.28,924.943 3262.7,924.943C3036.67,924.943 2853.16,741.438 2853.16,515.413C2853.16,289.387 3036.67,105.882 3262.7,105.882C3363.45,105.882 3488.26,117.719 3527.12,202.783C3574.14,305.706 3442.14,375.068 3415.14,479.152C3423.35,482.356 3430.12,485.524 3445.68,493.081C3453.42,496.839 3460.93,501.089 3468.28,505.557C3475.85,510.155 3483.29,514.987 3490.43,520.224C3517.3,539.932 3530.92,556.716 3533.94,560.362C3537.39,564.526 3540.63,568.863 3543.81,573.235C3547.38,578.139 3550.93,583.067 3554.2,588.176C3560.73,598.362 3567.11,608.64 3573.24,619.068C3579.96,630.49 3586.39,642.079 3592.74,653.705C3599.14,665.411 3605.42,677.186 3611.51,689.052C3638.03,740.668 3650.63,767.382 3653.88,774.267L3663.22,805.991L3663.31,833.784L3653.81,864.985L3640.46,883.721L3616.64,901.933L3595,909.902L3566.92,911.4L3533.29,902.436L3506.17,884.975C3500.38,879.936 3495.53,875.725 3491.33,872.067ZM3213.45,175.072C3170.57,175.072 3135.76,209.886 3135.76,252.768C3135.76,295.649 3170.57,330.463 3213.45,330.463C3256.33,330.463 3291.15,295.649 3291.15,252.768C3291.15,209.886 3256.33,175.072 3213.45,175.072ZM3027.39,546.561C2984.51,546.561 2949.69,581.375 2949.69,624.256C2949.69,667.137 2984.51,701.951 3027.39,701.951C3070.27,701.951 3105.08,667.137 3105.08,624.256C3105.08,581.375 3070.27,546.561 3027.39,546.561ZM3213.45,705.349C3170.57,705.349 3135.76,740.163 3135.76,783.044C3135.76,825.925 3170.57,860.739 3213.45,860.739C3256.33,860.739 3291.15,825.925 3291.15,783.044C3291.15,740.163 3256.33,705.349 3213.45,705.349ZM3530.23,823.28C3534.87,827.322 3540.31,832.059 3547.08,837.947C3547.93,838.691 3552.62,842.765 3558.98,845.645C3560.7,846.423 3571.21,851.176 3582.34,848.868C3585.7,848.17 3588.64,846.137 3591.79,844.768C3591.81,844.762 3598.25,836.739 3598.26,836.707C3599.99,833.314 3601,829.525 3601.49,825.75C3601.75,823.751 3603.17,812.86 3597.51,800.876C3594.33,794.142 3582,768.017 3556.07,717.533C3550.22,706.143 3544.19,694.841 3538.05,683.605C3532,672.547 3525.89,661.52 3519.51,650.656C3513.78,640.913 3507.81,631.312 3501.71,621.795C3499.11,617.731 3496.26,613.828 3493.42,609.927C3491,606.605 3488.56,603.295 3485.94,600.131C3483.7,597.427 3473.49,585.1 3453.56,570.484C3447.88,566.314 3441.94,562.489 3435.91,558.828C3430.23,555.374 3424.44,552.059 3418.46,549.155C3417.04,548.469 3415.67,547.805 3414.34,547.16C3400.93,540.685 3395.7,538.375 3386.8,535.096C3401.46,517.713 3406.26,492.994 3397.17,470.457C3380.02,427.927 3309.34,434.205 3303.81,364.752C3279.84,411.925 3262.44,475.357 3279.59,517.888C3290.6,545.164 3318.47,560.617 3346.36,557.074C3347.62,573.767 3348.05,577.332 3352.26,599.714C3353.49,606.252 3355.16,612.706 3356.99,619.1C3358.94,625.876 3361.07,632.612 3363.59,639.194C3372.45,662.262 3381.65,675.36 3383.67,678.233C3386.03,681.595 3388.59,684.821 3391.15,688.029C3394.17,691.797 3397.18,695.573 3400.42,699.154C3408,707.54 3415.69,715.827 3423.58,723.917C3432.38,732.938 3441.41,741.734 3450.49,750.477C3459.71,759.36 3469.03,768.148 3478.48,776.79C3505.77,801.756 3511.11,806.61 3530.23,823.28ZM3031.75,333.074C2988.87,333.074 2954.05,367.888 2954.05,410.769C2954.05,453.65 2988.87,488.464 3031.75,488.464C3074.63,488.464 3109.44,453.65 3109.44,410.769C3109.44,367.888 3074.63,333.074 3031.75,333.074Z"/>
            </g>
        </g>
    </g>
</svg>
