<?xml version="1.0" encoding="UTF-8" standalone="no"?>
<!DOCTYPE svg PUBLIC "-//W3C//DTD SVG 1.1//EN" "http://www.w3.org/Graphics/SVG/1.1/DTD/svg11.dtd">
<svg width="100%" height="100%" viewBox="0 0 500 500" version="1.1" xmlns="http://www.w3.org/2000/svg" xmlns:xlink="http://www.w3.org/1999/xlink" xml:space="preserve" xmlns:serif="http://www.serif.com/" style="fill-rule:evenodd;clip-rule:evenodd;stroke-linejoin:round;stroke-miterlimit:2;">
    <g transform="matrix(1,0,0,1,-2762,-591)">
        <g id="web" transform="matrix(0.534759,0,0,0.534759,1288.74,583.658)">
            <rect x="2754.99" y="13.729" width="935" height="935" style="fill:none;"/>
            <g transform="matrix(1.87,0,0,1.87,-4545.79,-16.3073)">
                <path d="M3938.49,131.124L3938.49,110.782C3938.49,77.454 3965.55,50.395 3998.88,50.395L4309.44,50.395C4342.77,50.395 4369.83,77.454 4369.83,110.782L4369.83,131.124L3938.49,131.124ZM4369.83,164.457L4369.83,421.342C4369.83,454.67 4342.77,481.729 4309.44,481.729L3998.88,481.729C3965.55,481.729 3938.49,454.67 3938.49,421.342L3938.49,164.457L4369.83,164.457ZM4157.09,248.975L4119.37,371.805C4116.67,380.598 4121.62,389.929 4130.41,392.629C4139.2,395.33 4148.53,390.383 4151.23,381.589L4188.95,258.76C4191.65,249.966 4186.7,240.635 4177.91,237.935C4169.12,235.235 4159.79,240.182 4157.09,248.975ZM4224.88,273.484L4266.59,315.199L4224.71,357.08C4218.2,363.585 4218.2,374.146 4224.71,380.651C4231.21,387.155 4241.77,387.155 4248.28,380.651L4301.95,326.984C4308.45,320.475 4308.45,309.923 4301.95,303.414L4248.45,249.914C4241.94,243.409 4231.38,243.409 4224.88,249.914C4218.37,256.418 4218.37,266.98 4224.88,273.484ZM4059.88,249.914L4006.38,303.414C3999.87,309.923 3999.87,320.475 4006.38,326.984L4060.04,380.651C4066.55,387.155 4077.11,387.155 4083.61,380.651C4090.12,374.146 4090.12,363.585 4083.61,357.08L4041.73,315.199L4083.45,273.484C4089.95,266.98 4089.95,256.418 4083.45,249.914C4076.94,243.409 4066.38,243.409 4059.88,249.914Z"/>
            </g>
        </g>
    </g>
</svg>
