<?xml version="1.0" encoding="UTF-8" standalone="no"?>
<!DOCTYPE svg PUBLIC "-//W3C//DTD SVG 1.1//EN" "http://www.w3.org/Graphics/SVG/1.1/DTD/svg11.dtd">
<svg width="100%" height="100%" viewBox="0 0 500 500" version="1.1" xmlns="http://www.w3.org/2000/svg" xmlns:xlink="http://www.w3.org/1999/xlink" xml:space="preserve" xmlns:serif="http://www.serif.com/" style="fill-rule:evenodd;clip-rule:evenodd;stroke-linejoin:round;stroke-miterlimit:2;">
    <g transform="matrix(1,0,0,1,-5046,-591)">
        <g id="systems" transform="matrix(0.534759,0,0,0.534759,3572.74,583.658)">
            <rect x="2754.99" y="13.729" width="935" height="935" style="fill:none;"/>
            <g transform="matrix(2.36497,0.633691,-0.633691,2.36497,-8762.44,-4875.01)">
                <path d="M5253.9,691.519L5259.9,726.346C5263.74,727.282 5267.51,728.507 5271.17,730.01L5296.49,705.356C5303.83,709.516 5310.68,714.492 5316.91,720.191L5301.28,751.888C5303.84,754.905 5306.17,758.111 5308.25,761.479L5343.23,756.415C5346.72,764.097 5349.34,772.149 5351.03,780.419L5319.75,796.879C5320.05,800.825 5320.05,804.788 5319.75,808.734L5351.03,825.194C5349.34,833.463 5346.72,841.516 5343.23,849.198L5308.25,844.133C5306.17,847.501 5303.84,850.707 5301.28,853.724L5316.91,885.421C5310.68,891.12 5303.83,896.097 5296.49,900.257L5271.17,875.603C5267.51,877.105 5263.74,878.33 5259.9,879.266L5253.9,914.093C5245.52,915.044 5237.05,915.044 5228.67,914.093L5222.68,879.266C5218.83,878.33 5215.06,877.105 5211.4,875.603L5186.08,900.257C5178.74,896.097 5171.89,891.12 5165.66,885.421L5181.29,853.724C5178.73,850.707 5176.4,847.501 5174.32,844.133L5139.35,849.198C5135.85,841.516 5133.23,833.463 5131.55,825.194L5162.82,808.734C5162.52,804.788 5162.52,800.825 5162.82,796.879L5131.55,780.419C5133.23,772.149 5135.85,764.097 5139.35,756.415L5174.32,761.479C5176.4,758.111 5178.73,754.905 5181.29,751.888L5165.66,720.191C5171.89,714.492 5178.74,709.516 5186.08,705.356L5211.4,730.01C5215.06,728.507 5218.83,727.282 5222.68,726.346L5228.67,691.519C5237.05,690.568 5245.52,690.568 5253.9,691.519ZM5241.28,775.926C5226.45,775.926 5214.4,787.971 5214.4,802.806C5214.4,817.642 5226.45,829.686 5241.28,829.686C5256.12,829.686 5268.16,817.642 5268.16,802.806C5268.16,787.971 5256.12,775.926 5241.28,775.926ZM5339.88,864.859L5370.55,878.857C5374.64,876.475 5379.08,874.752 5383.71,873.752L5396.92,842.737C5402.17,842.994 5407.38,843.801 5412.46,845.144L5415.68,878.703C5419.78,881.057 5423.5,884.043 5426.68,887.551L5460.14,883.488C5462.55,888.162 5464.45,893.076 5465.83,898.148L5438.37,917.709C5438.39,922.445 5437.66,927.154 5436.21,931.662L5456.46,958.613C5453.62,963.031 5450.31,967.138 5446.61,970.867L5415.94,956.869C5411.85,959.251 5407.4,960.974 5402.78,961.974L5389.56,992.988C5384.31,992.731 5379.11,991.925 5374.02,990.582L5370.81,957.023C5366.7,954.669 5362.99,951.683 5359.81,948.174L5326.34,952.238C5323.94,947.563 5322.03,942.65 5320.66,937.577L5348.11,918.017C5348.1,913.281 5348.83,908.572 5350.28,904.063L5330.02,877.113C5332.87,872.695 5336.17,868.588 5339.88,864.859ZM5375.66,903.722C5367.85,913.427 5369.4,927.643 5379.1,935.447C5388.81,943.252 5403.02,941.709 5410.83,932.004C5418.63,922.298 5417.09,908.083 5407.38,900.279C5397.68,892.474 5383.46,894.017 5375.66,903.722Z"/>
            </g>
        </g>
    </g>
</svg>
